# xmcd CD database file
#
# Track frame offsets:
#	150
#	12798
#	27097
#	43987
#	59393
#	76615
#	94137
#	125950
#	141569
#	156564
#	169094
#	194976
#	210766
#	226208
#	241479
#	253516
#	263312
#	277462
#	294287
#
# Disc length: 4213 seconds
#
# Revision: 2
# Processed by: cddbd v1.4b41PL1 Copyright (c) Steve Scherf et al.
# Submitted via: Feurio! 1.52 - http://www.feurio.com
#
DISCID=17107313
DTITLE=Duo Sonnenschirm - OLDies and das
DYEAR=1900
DGENRE=
TTITLE0=Unflätiges Lied
TTITLE1=Büroklammer Clara
TTITLE2=Der Urenkel von Spitzweg
TTITLE3=Ballade von den bilapidaren Beziehungen
TTITLE4=Der Heilige Ignoratius
TTITLE5=Made im Speck
TTITLE6=Romanze in Moskau
TTITLE7=Träumerei
TTITLE8=Steine haben keine Angst
TTITLE9=Ralf mit dem RAFzahn
TTITLE10=Der Tribünenheber
TTITLE11=Die Schalmei
TTITLE12=Flucht nach vorn
TTITLE13=Ich vergaß mehr
TTITLE14=Erziehung der Gefühle
TTITLE15=Sirena Sirenade
TTITLE16=Die gestundete Ohrfeige
TTITLE17=Der Elch im Stadtpark
TTITLE18=Ich will nach Hause
EXTD=
EXTT0=
EXTT1=
EXTT2=
EXTT3=
EXTT4=
EXTT5=
EXTT6=
EXTT7=
EXTT8=
EXTT9=
EXTT10=
EXTT11=
EXTT12=
EXTT13=
EXTT14=
EXTT15=
EXTT16=
EXTT17=
EXTT18=
PLAYORDER=
